<svg xmlns="http://www.w3.org/2000/svg" viewBox="0 0 128 128" role="img" aria-label="StackPrism icon">
  <defs>
    <linearGradient id="facetTealA" x1="18" y1="24" x2="64" y2="80" gradientUnits="userSpaceOnUse">
      <stop offset="0" stop-color="#5eead4"/>
      <stop offset="1" stop-color="#0f766e"/>
    </linearGradient>
    <linearGradient id="facetTealB" x1="10" y1="64" x2="64" y2="118" gradientUnits="userSpaceOnUse">
      <stop offset="0" stop-color="#14b8a6"/>
      <stop offset="1" stop-color="#115e59"/>
    </linearGradient>
    <linearGradient id="facetAmber" x1="64" y1="10" x2="118" y2="76" gradientUnits="userSpaceOnUse">
      <stop offset="0" stop-color="#fde68a"/>
      <stop offset="1" stop-color="#f97316"/>
    </linearGradient>
    <linearGradient id="facetBlue" x1="44" y1="62" x2="82" y2="118" gradientUnits="userSpaceOnUse">
      <stop offset="0" stop-color="#38bdf8"/>
      <stop offset="1" stop-color="#6366f1"/>
    </linearGradient>
    <linearGradient id="facetViolet" x1="64" y1="62" x2="98" y2="118" gradientUnits="userSpaceOnUse">
      <stop offset="0" stop-color="#818cf8"/>
      <stop offset="1" stop-color="#4f46e5"/>
    </linearGradient>
    <clipPath id="diamondClip">
      <path d="M64 10 118 64 64 118 10 64z"/>
    </clipPath>
    <filter id="softShadow" x="-20%" y="-20%" width="140%" height="150%">
      <feDropShadow dx="0" dy="5" stdDeviation="4" flood-color="#0f172a" flood-opacity=".16"/>
    </filter>
  </defs>
  <path d="M64 10 118 64 64 118 10 64z" fill="#ffffff" filter="url(#softShadow)"/>
  <g clip-path="url(#diamondClip)">
    <path d="M64 10 37 64 10 64z" fill="url(#facetTealA)"/>
    <path d="M64 10 64 64 37 64z" fill="#2dd4bf"/>
    <path d="M64 10 91 64 64 64z" fill="#fbbf24"/>
    <path d="M64 10 118 64 91 64z" fill="url(#facetAmber)"/>
    <path d="M10 64 37 64 64 118z" fill="url(#facetTealB)"/>
    <path d="M37 64 64 64 64 118z" fill="url(#facetBlue)"/>
    <path d="M64 64 91 64 64 118z" fill="url(#facetViolet)"/>
    <path d="M91 64 118 64 64 118z" fill="#f97316"/>
  </g>
  <path d="M64 10 118 64 64 118 10 64z" fill="none" stroke="#f8fafc" stroke-width="3" stroke-linejoin="round" opacity=".95"/>
  <path d="M64 10v108M10 64h108M37 64 64 10M91 64 64 10M37 64 64 118M91 64 64 118" fill="none" stroke="#f8fafc" stroke-width="3.2" stroke-linecap="round" stroke-linejoin="round" opacity=".9"/>
</svg>
