<svg xmlns="http://www.w3.org/2000/svg" viewBox="0 0 128 128" role="img" aria-label="StackPrism icon">
  <defs>
    <linearGradient id="bg" x1="18" y1="10" x2="112" y2="120" gradientUnits="userSpaceOnUse">
      <stop offset="0" stop-color="#10243f"/>
      <stop offset="1" stop-color="#0f172a"/>
    </linearGradient>
    <linearGradient id="facetA" x1="30" y1="26" x2="78" y2="88" gradientUnits="userSpaceOnUse">
      <stop offset="0" stop-color="#5eead4"/>
      <stop offset="1" stop-color="#0f766e"/>
    </linearGradient>
    <linearGradient id="facetB" x1="70" y1="24" x2="104" y2="70" gradientUnits="userSpaceOnUse">
      <stop offset="0" stop-color="#fbbf24"/>
      <stop offset="1" stop-color="#f97316"/>
    </linearGradient>
    <linearGradient id="facetC" x1="40" y1="58" x2="92" y2="105" gradientUnits="userSpaceOnUse">
      <stop offset="0" stop-color="#38bdf8"/>
      <stop offset="1" stop-color="#6366f1"/>
    </linearGradient>
  </defs>
  <rect x="8" y="8" width="112" height="112" rx="24" fill="url(#bg)"/>
  <path d="M28 92h48l16 9H44z" fill="#5eead4" opacity=".34"/>
  <path d="M24 76h52l20 10H43z" fill="#38bdf8" opacity=".38"/>
  <path d="M21 60h58l23 11H43z" fill="#fbbf24" opacity=".42"/>
  <path d="M33 25h47l29 25-23 47H39L19 60z" fill="#132c43" stroke="#e0f2fe" stroke-width="4" stroke-linejoin="round"/>
  <path d="M33 25l28 36-42-1z" fill="url(#facetA)"/>
  <path d="M33 25h47L61 61z" fill="#2dd4bf"/>
  <path d="M80 25l29 25-48 11z" fill="url(#facetB)"/>
  <path d="M19 60l42 1-22 36z" fill="#0f766e"/>
  <path d="M61 61l48-11-23 47z" fill="#f59e0b"/>
  <path d="M61 61l25 36H39z" fill="url(#facetC)"/>
  <path d="M61 61l19-36M61 61l25 36M61 61L39 97" fill="none" stroke="#e0f2fe" stroke-width="2.5" stroke-linecap="round" opacity=".82"/>
  <path d="M103 30l10-11M109 44l14-4M99 18l3-13" fill="none" stroke="#5eead4" stroke-width="5" stroke-linecap="round"/>
</svg>
