<svg xmlns="http://www.w3.org/2000/svg" viewBox="0 0 128 128" role="img" aria-label="StackPrism icon">
  <defs>
    <linearGradient id="facetA" x1="30" y1="26" x2="78" y2="88" gradientUnits="userSpaceOnUse">
      <stop offset="0" stop-color="#5eead4"/>
      <stop offset="1" stop-color="#0f766e"/>
    </linearGradient>
    <linearGradient id="facetB" x1="70" y1="24" x2="104" y2="70" gradientUnits="userSpaceOnUse">
      <stop offset="0" stop-color="#fbbf24"/>
      <stop offset="1" stop-color="#f97316"/>
    </linearGradient>
    <linearGradient id="facetC" x1="40" y1="58" x2="92" y2="105" gradientUnits="userSpaceOnUse">
      <stop offset="0" stop-color="#38bdf8"/>
      <stop offset="1" stop-color="#6366f1"/>
    </linearGradient>
    <filter id="softShadow" x="-20%" y="-20%" width="140%" height="150%">
      <feDropShadow dx="0" dy="5" stdDeviation="4" flood-color="#0f172a" flood-opacity=".14"/>
    </filter>
  </defs>
  <g transform="translate(64 68) scale(1.34 1.48) translate(-64 -64)">
    <g filter="url(#softShadow)">
      <path d="M33 25h47l29 25-23 47H39L19 60z" fill="#ffffff"/>
    </g>
    <path d="M33 25l28 36-42-1z" fill="url(#facetA)"/>
    <path d="M33 25h47L61 61z" fill="#2dd4bf"/>
    <path d="M80 25l29 25-48 11z" fill="url(#facetB)"/>
    <path d="M19 60l42 1-22 36z" fill="#0f766e"/>
    <path d="M61 61l48-11-23 47z" fill="#f59e0b"/>
    <path d="M61 61l25 36H39z" fill="url(#facetC)"/>
    <path d="M61 61l19-36M61 61l25 36M61 61L39 97" fill="none" stroke="#f8fafc" stroke-width="2.5" stroke-linecap="round" opacity=".86"/>
  </g>
</svg>
